<?xml version="1.0" encoding="utf-8"?>
<!-- Generator: Adobe Illustrator 16.0.0, SVG Export Plug-In . SVG Version: 6.00 Build 0)  -->
<!DOCTYPE svg PUBLIC "-//W3C//DTD SVG 1.1//EN" "http://www.w3.org/Graphics/SVG/1.1/DTD/svg11.dtd">
<svg version="1.1" id="레이어_1" xmlns="http://www.w3.org/2000/svg" xmlns:xlink="http://www.w3.org/1999/xlink" x="0px"
	 y="0px" width="100px" height="67px" viewBox="0 0 100 67" enable-background="new 0 0 100 67" xml:space="preserve">
<g>
	<g>
		<path fill="#434343" d="M49.999,66.555c-9.708,0-18.89-4.253-25.189-11.664l1.094-0.932c6.027,7.093,14.81,11.16,24.096,11.16
			c17.203,0,31.082-13.469,31.593-30.662L83.03,34.5C82.495,52.474,67.985,66.555,49.999,66.555z"/>
		<path fill="#D5D5D5" d="M21.913,51.386c-6.36,0-10.214-1.426-11.166-4.137c-0.986-2.811,1.33-6.485,6.692-10.63l0.878,1.138
			c-4.689,3.622-6.952,6.91-6.216,9.018c0.741,2.107,4.57,3.292,10.484,3.169l0.022,1.438
			C22.374,51.386,22.142,51.386,21.913,51.386z"/>
		<g>
			<path fill="#D5D5D5" d="M81.944,33.857C74.21,38.4,64.708,42.696,54.476,46.279c-10.236,3.585-20.341,6.154-29.222,7.435
				c-13.178,1.895-22.218,0.638-23.592-3.282c-1.374-3.92,4.905-10.547,16.39-17.287l-0.728-1.239
				C4.843,39.231-1.359,46.155,0.305,50.906c1.181,3.368,6.135,5.123,14.029,5.123c3.233,0,6.962-0.294,11.125-0.893
				c8.972-1.291,19.17-3.885,29.49-7.502c10.321-3.615,19.906-7.95,27.722-12.536L81.944,33.857z"/>
			<path fill="#D5D5D5" d="M99.695,16.093c-1.663-4.749-10.827-6.288-25.156-4.228l0.207,1.423c13.181-1.9,22.22-0.642,23.596,3.279
				c1.372,3.923-4.911,10.548-16.395,17.291l0.727,1.241C95.153,27.77,101.36,20.842,99.695,16.093z"/>
		</g>
		<path fill="#D5D5D5" d="M82.561,30.384l-0.877-1.137c4.688-3.625,6.953-6.914,6.212-9.021c-0.738-2.112-4.566-3.285-10.484-3.169
			l-0.022-1.438c6.79-0.113,10.879,1.319,11.862,4.131C90.239,22.561,87.927,26.237,82.561,30.384z"/>
		<path fill="#D5D5D5" d="M22.609,51.381l-0.022-1.438c8.146-0.128,19.401-2.509,30.885-6.529
			c11.48-4.023,21.762-9.186,28.212-14.167l0.877,1.137c-6.563,5.073-16.992,10.314-28.614,14.385
			C42.325,48.84,30.902,51.249,22.609,51.381z"/>
		<g>
			<path fill="#434343" d="M49.999,0.445c-17.986,0-32.493,14.082-33.029,32.058l-0.007,0.241c-0.009,0.251-0.018,0.502-0.018,0.755
				c0,1.216,0.073,2.485,0.22,3.77c0.561,4.934,2.184,9.566,4.826,13.774l1.215-0.762c-2.525-4.023-4.078-8.456-4.613-13.175
				c-0.14-1.232-0.21-2.444-0.21-3.607c0-0.236,0.009-0.472,0.016-0.704l0.009-0.248v-0.001c0.51-17.193,14.386-30.663,31.59-30.664
				c9.288,0,18.071,4.067,24.097,11.159l1.095-0.931C68.892,4.697,59.709,0.445,49.999,0.445z"/>
			<path fill="#434343" d="M78.011,15.956c-0.845-1.347-1.793-2.641-2.818-3.846l-1.095,0.931c0.981,1.152,1.886,2.391,2.694,3.679
				c2.528,4.024,4.08,8.457,4.616,13.177l1.428-0.163C82.275,24.798,80.65,20.164,78.011,15.956z"/>
		</g>
		<path fill="#D5D5D5" d="M89.251,19.75l-1.355,0.477c0.741,2.107-1.524,5.396-6.212,9.021c-6.45,4.981-16.731,10.144-28.212,14.167
			c-11.483,4.021-22.739,6.401-30.885,6.529v-0.009c-5.915,0.115-9.743-1.062-10.484-3.172l-1.355,0.475
			c0.952,2.714,4.805,4.141,11.166,4.141c0.229,0,0.461-0.002,0.696-0.005v0.008c8.293-0.132,19.715-2.541,31.337-6.611
			c11.622-4.071,22.051-9.313,28.614-14.385C87.927,26.237,90.239,22.561,89.251,19.75z"/>
	</g>
	<g>
		<g>
			<path d="M50.455,40.638c1.162,0,2.103-0.32,2.832-0.959c0.724-0.64,1.1-1.486,1.129-2.546h5.897
				c-0.017,1.596-0.451,3.058-1.305,4.384c-0.857,1.326-2.027,2.359-3.514,3.09c-1.485,0.731-3.131,1.098-4.929,1.098
				c-3.365,0-6.02-1.069-7.962-3.208c-1.945-2.139-2.916-5.093-2.916-8.863v-0.414c0-3.625,0.965-6.519,2.893-8.68
				c1.929-2.162,4.577-3.243,7.942-3.243c2.944,0,5.304,0.838,7.083,2.512c1.775,1.677,2.678,3.907,2.708,6.691h-5.896
				c-0.03-1.227-0.406-2.221-1.131-2.986c-0.728-0.766-1.685-1.147-2.873-1.147c-1.465,0-2.571,0.533-3.318,1.601
				c-0.748,1.067-1.122,2.801-1.122,5.196v0.654c0,2.427,0.37,4.167,1.109,5.229C47.825,40.106,48.95,40.638,50.455,40.638z"/>
			<path fill="#FFFFFF" d="M50.566,46.566c-3.602,0-6.497-1.173-8.601-3.489c-2.083-2.295-3.139-5.473-3.139-9.448v-0.412
				c0-3.827,1.048-6.941,3.114-9.255c2.089-2.343,4.979-3.531,8.584-3.531c3.157,0,5.738,0.925,7.675,2.748
				c1.942,1.833,2.947,4.293,2.977,7.308l0.011,0.874h-7.609l-0.021-0.84c-0.024-1.015-0.316-1.805-0.896-2.414
				c-0.561-0.593-1.294-0.878-2.246-0.878c-1.175,0-2.031,0.404-2.61,1.233c-0.641,0.914-0.966,2.497-0.966,4.701v0.654
				c0,2.235,0.321,3.829,0.955,4.737c0.572,0.819,1.444,1.222,2.664,1.222c0.954,0,1.693-0.245,2.26-0.745
				c0.542-0.477,0.815-1.104,0.839-1.92l0.023-0.837h7.606l-0.011,0.869c-0.017,1.754-0.502,3.383-1.439,4.842
				c-0.943,1.454-2.24,2.597-3.86,3.397C54.279,46.168,52.491,46.566,50.566,46.566z M50.521,22.156
				c-3.138,0-5.523,0.966-7.296,2.954c-1.776,1.989-2.676,4.716-2.676,8.106v0.414c0,3.534,0.905,6.322,2.691,8.286
				c1.79,1.969,4.186,2.926,7.325,2.926c1.658,0,3.188-0.34,4.547-1.008c1.335-0.659,2.403-1.598,3.171-2.785
				c0.602-0.935,0.973-1.959,1.107-3.055h-4.205c-0.18,0.928-0.628,1.708-1.332,2.331c-0.884,0.776-2.028,1.172-3.399,1.172
				c-1.799,0-3.173-0.659-4.079-1.959c-0.852-1.223-1.266-3.093-1.266-5.724V33.16c0-2.602,0.418-4.463,1.278-5.688
				c0.914-1.308,2.267-1.97,4.024-1.97c1.431,0,2.605,0.477,3.499,1.416c0.696,0.735,1.13,1.646,1.295,2.717h4.201
				c-0.183-2.151-0.971-3.858-2.397-5.202C55.408,22.924,53.227,22.156,50.521,22.156z"/>
		</g>
	</g>
</g>
</svg>
